Coordinates
version=1
nRows=14
nColumns=42
inDegrees=yes

Units are S.I. units (second, meters, Newtons, ...)
If the header above contains a line with 'inDegrees', this indicates whether rotational values are in degrees (yes) or radians (no).

endheader
time	pelvis_tilt	pelvis_list	pelvis_rotation	pelvis_tx	pelvis_ty	pelvis_tz	hip_flexion_r	hip_adduction_r	hip_rotation_r	knee_angle_r	knee_adduction_r	knee_angle_r_beta	ankle_angle_r	subtalar_angle_r	mtp_angle_r	hip_flexion_l	hip_adduction_l	hip_rotation_l	knee_angle_l	knee_adduction_l	knee_angle_l_beta	ankle_angle_l	subtalar_angle_l	mtp_angle_l	lumbar_extension	lumbar_bending	lumbar_rotation	arm_flex_r	arm_add_r	arm_rot_r	elbow_flex_r	pro_sup_r	wrist_flex_r	wrist_dev_r	arm_flex_l	arm_add_l	arm_rot_l	elbow_flex_l	pro_sup_l	wrist_flex_l	wrist_dev_l
      1.00000000	      2.41112909	     10.03642514	     91.69200706	      0.47779629	      0.97264877	     -0.67940354	    -20.44172939	      3.08032365	     -0.82983738	      6.44481083	      5.96791786	      0.11248317	      8.43831919	     -2.71800415	    -11.00429599	     16.82376853	     -2.95884362	     -3.44484662	     25.00261009	      5.46256159	      0.43637787	      2.23543287	     -8.72899374	     -6.65601713	    -21.44269981	      5.13478615	      4.19569561	     11.14405811	    -19.12809024	    -10.02304880	     59.18845173	     90.00000001	      0.00000000	      0.00000000	     -5.50947686	     -8.76938151	      2.76246488	     32.62025277	     90.00000001	      0.00000000	      0.00000000
      1.01000000	      2.39716330	      9.96570451	     91.68835018	      0.47715385	      0.97108228	     -0.67774161	    -21.39391429	      2.99365877	     -1.03461467	      6.10877114	      5.96791786	      0.10661817	      8.66392617	     -2.12044005	    -11.12384513	     16.56383358	     -3.02997170	     -3.28968960	     20.51302204	      5.46256159	      0.35801977	      1.88940794	     -7.48555196	     -6.71383043	    -21.56605844	      5.14024300	      4.21202102	     11.83228395	    -19.40012280	     -9.85049229	     59.99377765	     90.00000001	      0.00000000	      0.00000000	     -5.88525778	     -8.63800984	      2.50430363	     32.18664631	     90.00000001	      0.00000000	      0.00000000
      1.02000000	      2.47274382	      9.82598137	     91.62931922	      0.47662517	      0.96928282	     -0.67609461	    -22.17074549	      2.98495877	     -1.21454528	      5.95572346	      5.96791786	      0.10394698	      8.90930877	     -1.50973650	    -11.33554374	     16.30734272	     -3.20845458	     -3.15834702	     16.14134867	      5.46256159	      0.28171968	      1.79400187	     -6.27754666	     -7.03890747	    -21.63098808	      5.20996719	      4.32575548	     12.45497456	    -19.69794995	     -9.63311698	     60.80347294	     90.00000001	      0.00000000	      0.00000000	     -6.21484401	     -8.53042056	      2.28143431	     31.77853268	     90.00000001	      0.00000000	      0.00000000
      1.03000000	      2.61051672	      9.62642633	     91.60043597	      0.47593778	      0.96722914	     -0.67454868	    -22.79001124	      3.04782447	     -1.38806458	      5.99380742	      5.96791786	      0.10461167	      9.15847285	     -0.99538898	    -11.61195059	     16.09603141	     -3.42888867	     -3.12126140	     12.04959465	      5.46256159	      0.21030510	      1.94586491	     -4.99201090	     -7.65153579	    -21.60951694	      5.37367886	      4.38824639	     13.04541076	    -19.99584455	     -9.40147365	     61.54920384	     90.00000001	      0.00000000	      0.00000000	     -6.53709997	     -8.39356886	      2.11949893	     31.35666640	     90.00000001	      0.00000000	      0.00000000
      1.04000000	      2.76155924	      9.42765329	     91.65621822	      0.47502737	      0.96499221	     -0.67315417	    -23.33131815	      3.15335819	     -1.79443936	      6.21291775	      5.96791786	      0.10843587	      9.45297347	     -0.35465542	    -12.00814276	     15.89643143	     -3.61376612	     -3.04438336	      8.34685670	      5.46256159	      0.14568013	      2.33106265	     -3.63730869	     -8.49283430	    -21.55689503	      5.59080990	      4.36974063	     13.61205188	    -20.27280146	     -9.24447747	     62.23645417	     90.00000001	      0.00000000	      0.00000000	     -6.86643100	     -8.29996569	      1.96199243	     31.04589305	     90.00000001	      0.00000000	      0.00000000
      1.05000000	      3.20919357	      8.97117290	     91.86533370	      0.47388050	      0.96220493	     -0.67166813	    -23.46874930	      3.65397183	     -2.10175925	      6.61098357	      5.96791786	      0.11538343	      9.61893562	     -0.14440419	    -12.22174952	     16.19309226	     -4.04597686	     -2.82507606	      5.43410898	      5.46256159	      0.09484309	      3.14537456	     -2.11831465	     -8.95595120	    -21.19414150	      6.17205988	      4.22735768	     14.15989273	    -20.47868313	     -9.18430289	     62.81440357	     90.00000001	      0.00000000	      0.00000000	     -7.22319663	     -8.19158048	      1.96213962	     30.81887306	     90.00000001	      0.00000000	      0.00000000
      1.06000000	      3.54436651	      8.61146417	     91.96653372	      0.47279568	      0.95950415	     -0.67029156	    -23.60157225	      3.98369571	     -2.45399515	      7.22045193	      5.96791786	      0.12602066	      9.84522114	      0.06327837	    -12.50922017	     16.35932918	     -4.36866749	     -3.00706533	      3.03274908	      5.46256159	      0.05293146	      3.86375702	     -0.75697771	     -9.41238424	    -20.94351858	      6.59591857	      4.11459582	     14.67690180	    -20.63091359	     -9.06503806	     63.33581219	     90.00000001	      0.00000000	      0.00000000	     -7.54373160	     -8.08432738	      1.97676115	     30.53585698	     90.00000001	      0.00000000	      0.00000000
      1.07000000	      3.65270143	      8.44713682	     91.80032373	      0.47167336	      0.95710223	     -0.66912419	    -23.57833845	      3.86938787	     -3.48520117	      8.74447574	      5.96791786	      0.15261989	     10.64275632	      1.98666421	    -13.92505286	     16.35147540	     -4.53144040	     -4.30569630	      1.46329964	      5.46256159	      0.02553940	      4.11133764	      1.84541398	    -11.05623133	    -20.88107296	      6.73348756	      4.34020088	     15.10801637	    -21.10017361	     -8.48746258	     63.72507487	     90.00000001	      0.00000000	      0.00000000	     -7.65145723	     -7.95434670	      1.86000928	     30.09566919	     90.00000001	      0.00000000	      0.00000000
      1.08000000	      3.95301804	      8.05303670	     91.96990266	      0.47045601	      0.95427361	     -0.66839818	    -23.42835326	      4.13012720	     -4.22836554	      9.94875921	      5.96791786	      0.17363860	     10.93841477	      2.83567867	    -15.22037834	     17.03093537	     -4.73641274	     -4.72733342	      1.19208762	      5.46256159	      0.02080585	      4.42150537	      3.00997126	    -12.75746511	    -20.44711148	      7.12393656	      4.13162279	     15.50591315	    -21.17563178	     -8.37215602	     63.93933819	     90.00000001	      0.00000000	      0.00000000	     -8.00942091	     -7.90999461	      1.78688520	     29.95242986	     90.00000001	      0.00000000	      0.00000000
      1.09000000	      3.90070233	      8.08591835	     92.01185552	      0.46951005	      0.95246743	     -0.66816694	    -23.88092516	      4.01768074	     -4.45771803	     10.88702828	      5.96791786	      0.19001449	     10.94798535	      2.80391624	    -15.48975214	     17.13732480	     -4.60792396	     -4.56579018	      1.38375905	      5.46256159	      0.02415115	      4.61690350	      2.87856738	    -12.98455367	    -20.49279713	      7.07952308	      4.01236039	     15.80786802	    -21.12582509	     -8.34861577	     64.19742402	     90.00000001	      0.00000000	      0.00000000	     -8.25461248	     -7.95131279	      1.82596722	     29.78444386	     90.00000001	      0.00000000	      0.00000000
      1.10000000	      3.73782152	      8.11984790	     91.97981497	      0.46890994	      0.95099727	     -0.66858188	    -24.46095824	      3.78243671	     -4.33100426	     11.58537762	      5.96791786	      0.20220298	     10.75385675	      2.89216393	    -15.55716584	     17.21273712	     -4.38229279	     -4.33573357	      2.12496994	      5.46256159	      0.03708772	      4.61839789	      2.48077806	    -13.00740505	    -20.44212044	      6.83485174	      4.01341919	     15.84391882	    -21.03383601	     -8.32992890	     64.29424959	     90.00000001	      0.00000000	      0.00000000	     -8.52547920	     -8.08673664	      1.83107545	     29.68749210	     90.00000001	      0.00000000	      0.00000000
      1.11000000	      3.36816408	      7.80593959	     91.93803004	      0.46753681	      0.94883164	     -0.66851280	    -24.00110022	      3.11318841	     -5.48893715	     13.72070316	      5.96791786	      0.23947145	     11.20263674	      4.36290539	    -17.84045836	     18.02280659	     -3.71720238	     -3.46466954	      3.97308175	      5.46256159	      0.06934336	      4.30704826	     -0.92283294	    -13.46049399	    -20.09166364	      6.43207486	      3.84253747	     16.01463084	    -20.96993934	     -8.25679385	     64.30939823	     90.00000001	      0.00000000	      0.00000000	     -8.83276405	     -8.21591308	      2.30214074	     29.68269689	     90.00000001	      0.00000000	      0.00000000
      1.12000000	      3.03972284	      7.82559381	     91.93987912	      0.46659632	      0.94733366	     -0.66919398	    -24.36763919	      2.66903979	     -5.67954104	     14.73479088	      5.96791786	      0.25717062	     10.20305682	      3.93802705	    -21.05785285	     18.44900515	     -3.16582920	     -3.28265812	      6.37669470	      5.46256159	      0.11129432	      4.15223869	     -2.84158255	    -14.58656664	    -20.01669964	      6.03284763	      3.78794401	     15.86959406	    -20.82940275	     -8.39936281	     64.45376816	     90.00000001	      0.00000000	      0.00000000	     -9.02008429	     -8.44105940	      2.83468655	     29.58029305	     90.00000001	      0.00000000	      0.00000000
      1.13000000	      2.53091035	      8.10145564	     91.79048938	      0.46588333	      0.94646467	     -0.67034354	    -25.04497685	      2.00535573	     -5.76052423	     15.75873253	      5.96791786	      0.27504177	      9.69288649	      3.64537472	    -20.97881817	     18.38043223	     -2.51838316	     -3.48235912	      8.81337383	      5.46256159	      0.15382239	      3.95064276	     -4.15006979	    -14.51764713	    -20.21693480	      5.37100661	      3.80886451	     15.67704194	    -20.62466199	     -8.47174458	     64.46952550	     90.00000001	      0.00000000	      0.00000000	     -9.21082678	     -8.63909391	      2.82409347	     29.59916884	     90.00000001	      0.00000000	      0.00000000
